<svg xmlns="http://www.w3.org/2000/svg" viewBox="0 0 159.056 23.264"><defs><style>.a{fill:#ddd;}.b,.c{fill:#f76472;}.c{stroke:rgba(0,0,0,0);}.d{fill:#a9a9a9;}</style></defs><g transform="translate(-895.472 -20.856)"><path class="a" d="M0,0H1V22.644H0Z" transform="translate(950.924 21.356)"/><g transform="translate(-13.576)"><path class="b" d="M1.8-22.4V0H-1.773V-18.912H-5.84V-22.4Z" transform="translate(952 44)"/><path class="c" d="M.007.112a4.516,4.516,0,0,1-2.135-.5A3.7,3.7,0,0,1-3.605-1.764a3.8,3.8,0,0,1-.532-2,3.8,3.8,0,0,1,.532-2A3.7,3.7,0,0,1-2.128-7.147a4.516,4.516,0,0,1,2.135-.5,4.475,4.475,0,0,1,2.128.5,3.706,3.706,0,0,1,1.47,1.379,3.8,3.8,0,0,1,.532,2,3.8,3.8,0,0,1-.532,2A3.706,3.706,0,0,1,2.135-.385,4.475,4.475,0,0,1,.007.112Zm0-1.792a1.819,1.819,0,0,0,1.379-.567,2.114,2.114,0,0,0,.539-1.519,2.114,2.114,0,0,0-.539-1.519A1.819,1.819,0,0,0,.007-5.852a1.842,1.842,0,0,0-1.386.567,2.1,2.1,0,0,0-.546,1.519,2.1,2.1,0,0,0,.546,1.519A1.842,1.842,0,0,0,.007-1.68Z" transform="translate(938 29)"/><path class="b" d="M9.952-22.4V0H6.528L-5.824-15.168V0H-9.952V-22.4h3.424L5.824-7.232V-22.4Z" transform="translate(919 44)"/></g><g transform="translate(-13.576)"><path class="d" d="M3.732.12A6.408,6.408,0,0,1,1.854-.156,3.919,3.919,0,0,1,.42-.888L.96-2.1a4.254,4.254,0,0,0,1.266.666,4.6,4.6,0,0,0,1.506.258,2.6,2.6,0,0,0,1.4-.3.909.909,0,0,0,.462-.792.767.767,0,0,0-.258-.594,1.811,1.811,0,0,0-.654-.366q-.4-.132-1.08-.3a12.589,12.589,0,0,1-1.554-.456A2.557,2.557,0,0,1,1.026-4.7,1.923,1.923,0,0,1,.6-6.012,2.241,2.241,0,0,1,.978-7.278a2.558,2.558,0,0,1,1.14-.906A4.619,4.619,0,0,1,3.984-8.52,6.027,6.027,0,0,1,5.5-8.328a4.179,4.179,0,0,1,1.284.552L6.288-6.564a4.854,4.854,0,0,0-1.152-.492,4.309,4.309,0,0,0-1.164-.168A2.432,2.432,0,0,0,2.6-6.912a.962.962,0,0,0-.45.828.749.749,0,0,0,.258.588,1.864,1.864,0,0,0,.654.36q.4.132,1.08.3a11.365,11.365,0,0,1,1.536.45A2.63,2.63,0,0,1,6.7-3.672a1.882,1.882,0,0,1,.426,1.3,2.213,2.213,0,0,1-.378,1.26,2.571,2.571,0,0,1-1.146.9A4.662,4.662,0,0,1,3.732.12Zm6.528-7.2H7.476V-8.4H14.6v1.32H11.82V0H10.26ZM19.236.12a3.653,3.653,0,0,1-2.712-.978,3.806,3.806,0,0,1-.972-2.8V-8.4h1.56v4.68q0,2.472,2.136,2.472T21.372-3.72V-8.4h1.536v4.74a3.82,3.82,0,0,1-.966,2.8A3.632,3.632,0,0,1,19.236.12ZM25.092-8.4h3.672a5.269,5.269,0,0,1,2.388.522A3.863,3.863,0,0,1,32.772-6.4a4.176,4.176,0,0,1,.576,2.2A4.176,4.176,0,0,1,32.772-2a3.863,3.863,0,0,1-1.62,1.476A5.269,5.269,0,0,1,28.764,0H25.092Zm3.6,7.08a3.565,3.565,0,0,0,1.626-.354A2.533,2.533,0,0,0,31.4-2.682,2.979,2.979,0,0,0,31.776-4.2,2.979,2.979,0,0,0,31.4-5.718a2.533,2.533,0,0,0-1.08-1.008,3.565,3.565,0,0,0-1.626-.354h-2.04v5.76ZM35-8.4h1.56V0H35ZM42.756.12A4.79,4.79,0,0,1,40.44-.438a4.132,4.132,0,0,1-1.62-1.548A4.253,4.253,0,0,1,38.232-4.2a4.253,4.253,0,0,1,.588-2.214,4.132,4.132,0,0,1,1.62-1.548,4.79,4.79,0,0,1,2.316-.558,4.79,4.79,0,0,1,2.316.558,4.146,4.146,0,0,1,1.62,1.542A4.244,4.244,0,0,1,47.28-4.2a4.244,4.244,0,0,1-.588,2.22,4.146,4.146,0,0,1-1.62,1.542A4.79,4.79,0,0,1,42.756.12Zm0-1.368a3.03,3.03,0,0,0,1.512-.378,2.734,2.734,0,0,0,1.056-1.056A3.026,3.026,0,0,0,45.708-4.2a3.026,3.026,0,0,0-.384-1.518,2.734,2.734,0,0,0-1.056-1.056,3.03,3.03,0,0,0-1.512-.378,3.03,3.03,0,0,0-1.512.378,2.734,2.734,0,0,0-1.056,1.056A3.026,3.026,0,0,0,39.8-4.2a3.026,3.026,0,0,0,.384,1.518,2.734,2.734,0,0,0,1.056,1.056A3.03,3.03,0,0,0,42.756-1.248Z" transform="translate(974.5 30)"/><path class="d" d="M4.02-3.516,2.688-2.148V0H1.128V-8.4h1.56v4.308L6.84-8.4H8.592L5.064-4.644,8.808,0H6.984ZM13.5.12a4.79,4.79,0,0,1-2.316-.558,4.132,4.132,0,0,1-1.62-1.548A4.253,4.253,0,0,1,8.976-4.2a4.253,4.253,0,0,1,.588-2.214,4.132,4.132,0,0,1,1.62-1.548A4.79,4.79,0,0,1,13.5-8.52a4.79,4.79,0,0,1,2.316.558,4.146,4.146,0,0,1,1.62,1.542,4.244,4.244,0,0,1,.588,2.22,4.244,4.244,0,0,1-.588,2.22,4.146,4.146,0,0,1-1.62,1.542A4.79,4.79,0,0,1,13.5.12Zm0-1.368a3.03,3.03,0,0,0,1.512-.378,2.734,2.734,0,0,0,1.056-1.056A3.026,3.026,0,0,0,16.452-4.2a3.026,3.026,0,0,0-.384-1.518,2.734,2.734,0,0,0-1.056-1.056A3.03,3.03,0,0,0,13.5-7.152a3.03,3.03,0,0,0-1.512.378,2.734,2.734,0,0,0-1.056,1.056A3.026,3.026,0,0,0,10.548-4.2a3.026,3.026,0,0,0,.384,1.518,2.734,2.734,0,0,0,1.056,1.056A3.03,3.03,0,0,0,13.5-1.248ZM22.284.12a6.408,6.408,0,0,1-1.878-.276,3.919,3.919,0,0,1-1.434-.732l.54-1.212a4.254,4.254,0,0,0,1.266.666,4.6,4.6,0,0,0,1.506.258,2.6,2.6,0,0,0,1.4-.3.909.909,0,0,0,.462-.792.767.767,0,0,0-.258-.594,1.811,1.811,0,0,0-.654-.366q-.4-.132-1.08-.3A12.589,12.589,0,0,1,20.6-3.984a2.557,2.557,0,0,1-1.02-.714,1.923,1.923,0,0,1-.426-1.314,2.241,2.241,0,0,1,.378-1.266,2.558,2.558,0,0,1,1.14-.906,4.619,4.619,0,0,1,1.866-.336,6.027,6.027,0,0,1,1.512.192,4.179,4.179,0,0,1,1.284.552L24.84-6.564a4.854,4.854,0,0,0-1.152-.492,4.309,4.309,0,0,0-1.164-.168,2.432,2.432,0,0,0-1.374.312.962.962,0,0,0-.45.828.749.749,0,0,0,.258.588,1.864,1.864,0,0,0,.654.36q.4.132,1.08.3a11.365,11.365,0,0,1,1.536.45,2.63,2.63,0,0,1,1.026.714,1.882,1.882,0,0,1,.426,1.3,2.213,2.213,0,0,1-.378,1.26,2.571,2.571,0,0,1-1.146.9A4.662,4.662,0,0,1,22.284.12ZM34.944,0l-.012-5.568L32.172-.96h-.7L28.716-5.5V0H27.228V-8.4h1.284l3.336,5.568L35.124-8.4h1.284L36.42,0ZM44.988-1.308V0h-6.3V-8.4H44.82v1.308H40.248v2.184H44.3v1.284H40.248v2.316ZM48.432-7.08H45.648V-8.4h7.128v1.32H49.992V0h-1.56Zm9.024,4.116V0H55.9V-2.94L52.6-8.4h1.668l2.46,4.092L59.208-8.4h1.536ZM65.292.12a4.731,4.731,0,0,1-2.3-.558A4.113,4.113,0,0,1,61.386-1.98,4.278,4.278,0,0,1,60.8-4.2a4.244,4.244,0,0,1,.588-2.22,4.156,4.156,0,0,1,1.614-1.542,4.731,4.731,0,0,1,2.3-.558,4.793,4.793,0,0,1,1.884.36,3.843,3.843,0,0,1,1.44,1.044l-1.008.948a2.94,2.94,0,0,0-2.244-.984,3.146,3.146,0,0,0-1.548.378,2.723,2.723,0,0,0-1.068,1.05A3.017,3.017,0,0,0,62.376-4.2a3.017,3.017,0,0,0,.384,1.524,2.723,2.723,0,0,0,1.068,1.05,3.146,3.146,0,0,0,1.548.378,2.924,2.924,0,0,0,2.244-1l1.008.96A3.832,3.832,0,0,1,67.182-.24,4.837,4.837,0,0,1,65.292.12ZM76.656-1.32V0H69.492V-1.044L74.436-7.08h-4.86V-8.4H76.5v1.044L71.556-1.32ZM85.548-8.4V0H84.264L79.632-5.688V0H78.084V-8.4h1.284L84-2.712V-8.4ZM94.1-1.308V0H87.8V-8.4h6.132v1.308H89.364v2.184H93.42v1.284H89.364v2.316Z" transform="translate(974 44)"/></g></g></svg>