<svg xmlns="http://www.w3.org/2000/svg" viewBox="0 0 44.752 23.144"><defs><style>.a,.b{fill:#f76472;}.b{stroke:rgba(0,0,0,0);}</style></defs><g transform="translate(-909.048 -20.856)"><path class="a" d="M1.8-22.4V0H-1.773V-18.912H-5.84V-22.4Z" transform="translate(952 44)"/><path class="b" d="M.007.112a4.516,4.516,0,0,1-2.135-.5A3.7,3.7,0,0,1-3.605-1.764a3.8,3.8,0,0,1-.532-2,3.8,3.8,0,0,1,.532-2A3.7,3.7,0,0,1-2.128-7.147a4.516,4.516,0,0,1,2.135-.5,4.475,4.475,0,0,1,2.128.5,3.706,3.706,0,0,1,1.47,1.379,3.8,3.8,0,0,1,.532,2,3.8,3.8,0,0,1-.532,2A3.706,3.706,0,0,1,2.135-.385,4.475,4.475,0,0,1,.007.112Zm0-1.792a1.819,1.819,0,0,0,1.379-.567,2.114,2.114,0,0,0,.539-1.519,2.114,2.114,0,0,0-.539-1.519A1.819,1.819,0,0,0,.007-5.852a1.842,1.842,0,0,0-1.386.567,2.1,2.1,0,0,0-.546,1.519,2.1,2.1,0,0,0,.546,1.519A1.842,1.842,0,0,0,.007-1.68Z" transform="translate(938 29)"/><path class="a" d="M9.952-22.4V0H6.528L-5.824-15.168V0H-9.952V-22.4h3.424L5.824-7.232V-22.4Z" transform="translate(919 44)"/></g></svg>